<svg width="29" height="30" viewBox="0 0 29 30" fill="none" xmlns="http://www.w3.org/2000/svg">
<circle cx="14.1414" cy="15.1414" r="14.1414" fill="black"/>
<path d="M8.74193 8.71351C9.73954 8.71351 10.6652 9.22774 11.4262 10.1328C11.9919 9.52599 12.6604 9.08375 13.37 8.86778V6.65657C13.37 6.11104 13.5867 5.58785 13.9725 5.2021C14.3582 4.81635 14.8814 4.59964 15.427 4.59964H17.4839V6.65657H15.427V8.86778C16.1366 9.08375 16.8051 9.52599 17.3708 10.1328C18.1318 9.22774 19.0574 8.71351 20.0551 8.71351C22.6262 8.71351 24.6832 12.1692 24.6832 16.427C24.6832 20.6849 22.6262 24.1405 20.0551 24.1405C19.0574 24.1405 18.1318 23.6263 17.3708 22.7212C16.5377 23.6263 15.5092 24.1405 14.3985 24.1405C13.2878 24.1405 12.2593 23.6263 11.4262 22.7212C10.6652 23.6263 9.73954 24.1405 8.74193 24.1405C6.17076 24.1405 4.11383 20.6849 4.11383 16.427C4.11383 12.1692 6.17076 8.71351 8.74193 8.71351Z" fill="#B24000"/>
<g filter="url(#filter0_f_13_91)">
<path d="M8.74193 8.71351C9.73954 8.71351 10.6652 9.22774 11.4262 10.1328C11.9919 9.52599 12.6604 9.08375 13.37 8.86778V6.65657C13.37 6.11104 13.5867 5.58785 13.9725 5.2021C14.3582 4.81635 14.8814 4.59964 15.427 4.59964H17.4839V6.65657H15.427V8.86778C16.1366 9.08375 16.8051 9.52599 17.3708 10.1328C18.1318 9.22774 19.0574 8.71351 20.0551 8.71351C22.6262 8.71351 24.6832 12.1692 24.6832 16.427C24.6832 20.6849 22.6262 24.1405 20.0551 24.1405C19.0574 24.1405 18.1318 23.6263 17.3708 22.7212C16.5377 23.6263 15.5092 24.1405 14.3985 24.1405C13.2878 24.1405 12.2593 23.6263 11.4262 22.7212C10.6652 23.6263 9.73954 24.1405 8.74193 24.1405C6.17076 24.1405 4.11383 20.6849 4.11383 16.427C4.11383 12.1692 6.17076 8.71351 8.74193 8.71351ZM11.3131 12.8274L10.0275 15.1414H12.5987L11.3131 12.8274ZM17.4839 12.8274L16.1983 15.1414H18.7695L17.4839 12.8274ZM10.2846 20.0266H12.3416L13.37 18.9982L14.3985 20.0266H16.4554L17.4839 18.9982L18.5124 20.0266L20.0551 16.9412L16.3732 17.5789L15.427 18.9982L14.3985 17.9697H12.3416L11.3131 18.9982L10.2846 17.9697L8.2277 16.9412L10.2846 20.0266Z" fill="#FFE600" fill-opacity="0.69"/>
</g>
<path d="M8.74193 8.71351C9.73954 8.71351 10.6652 9.22774 11.4262 10.1328C11.9919 9.52599 12.6604 9.08375 13.37 8.86778V6.65657C13.37 6.11104 13.5867 5.58785 13.9725 5.2021C14.3582 4.81635 14.8814 4.59964 15.427 4.59964H17.4839V6.65657H15.427V8.86778C16.1366 9.08375 16.8051 9.52599 17.3708 10.1328C18.1318 9.22774 19.0574 8.71351 20.0551 8.71351C22.6262 8.71351 24.6832 12.1692 24.6832 16.427C24.6832 20.6849 22.6262 24.1405 20.0551 24.1405C19.0574 24.1405 18.1318 23.6263 17.3708 22.7212C16.5377 23.6263 15.5092 24.1405 14.3985 24.1405C13.2878 24.1405 12.2593 23.6263 11.4262 22.7212C10.6652 23.6263 9.73954 24.1405 8.74193 24.1405C6.17076 24.1405 4.11383 20.6849 4.11383 16.427C4.11383 12.1692 6.17076 8.71351 8.74193 8.71351ZM11.3131 12.8274L10.0275 15.1414H12.5987L11.3131 12.8274ZM17.4839 12.8274L16.1983 15.1414H18.7695L17.4839 12.8274ZM10.2846 20.0266H12.3416L13.37 18.9982L14.3985 20.0266H16.4554L17.4839 18.9982L18.5124 20.0266L20.0551 16.9412L16.3732 17.5789L15.427 18.9982L14.3985 17.9697H12.3416L11.3131 18.9982L10.2846 17.9697L8.2277 16.9412L10.2846 20.0266Z" fill="#C16000"/>
<ellipse cx="14.1415" cy="17.1983" rx="6.94215" ry="5.39945" fill="#C16000"/>
<defs>
<filter id="filter0_f_13_91" x="0.113831" y="0.59964" width="28.5693" height="27.5409" filterUnits="userSpaceOnUse" color-interpolation-filters="sRGB">
<feFlood flood-opacity="0" result="BackgroundImageFix"/>
<feBlend mode="normal" in="SourceGraphic" in2="BackgroundImageFix" result="shape"/>
<feGaussianBlur stdDeviation="2" result="effect1_foregroundBlur_13_91"/>
</filter>
</defs>
</svg>
